<mxfile host="Electron" modified="2023-11-08T05:14:03.130Z" agent="Mozilla/5.0 (Windows NT 10.0; Win64; x64) AppleWebKit/537.36 (KHTML, like Gecko) draw.io/21.7.5 Chrome/114.0.5735.289 Electron/25.8.1 Safari/537.36" etag="sItiTqOW4EtsqDoTfO37" version="21.7.5" type="device">
  <diagram id="C5RBs43oDa-KdzZeNtuy" name="Page-1">
    <mxGraphModel dx="2304" dy="730" grid="1" gridSize="10" guides="1" tooltips="1" connect="1" arrows="1" fold="1" page="1" pageScale="1" pageWidth="827" pageHeight="1169" math="0" shadow="0">
      <root>
        <mxCell id="WIyWlLk6GJQsqaUBKTNV-0" />
        <mxCell id="WIyWlLk6GJQsqaUBKTNV-1" parent="WIyWlLk6GJQsqaUBKTNV-0" />
        <mxCell id="r2_5SxalmyWafiQPoSgy-3" value="" style="edgeStyle=orthogonalEdgeStyle;rounded=0;orthogonalLoop=1;jettySize=auto;html=1;" edge="1" parent="WIyWlLk6GJQsqaUBKTNV-1" source="r2_5SxalmyWafiQPoSgy-0" target="r2_5SxalmyWafiQPoSgy-2">
          <mxGeometry relative="1" as="geometry" />
        </mxCell>
        <mxCell id="r2_5SxalmyWafiQPoSgy-0" value="start" style="ellipse;whiteSpace=wrap;html=1;" vertex="1" parent="WIyWlLk6GJQsqaUBKTNV-1">
          <mxGeometry x="140" y="30" width="90" height="50" as="geometry" />
        </mxCell>
        <mxCell id="r2_5SxalmyWafiQPoSgy-13" value="" style="edgeStyle=orthogonalEdgeStyle;rounded=0;orthogonalLoop=1;jettySize=auto;html=1;" edge="1" parent="WIyWlLk6GJQsqaUBKTNV-1" source="r2_5SxalmyWafiQPoSgy-2" target="r2_5SxalmyWafiQPoSgy-12">
          <mxGeometry relative="1" as="geometry" />
        </mxCell>
        <mxCell id="r2_5SxalmyWafiQPoSgy-2" value="int tinggi_berlian" style="shape=hexagon;perimeter=hexagonPerimeter2;whiteSpace=wrap;html=1;fixedSize=1;" vertex="1" parent="WIyWlLk6GJQsqaUBKTNV-1">
          <mxGeometry x="122.5" y="120" width="125" height="60" as="geometry" />
        </mxCell>
        <mxCell id="r2_5SxalmyWafiQPoSgy-15" value="" style="edgeStyle=orthogonalEdgeStyle;rounded=0;orthogonalLoop=1;jettySize=auto;html=1;" edge="1" parent="WIyWlLk6GJQsqaUBKTNV-1" source="r2_5SxalmyWafiQPoSgy-12" target="r2_5SxalmyWafiQPoSgy-14">
          <mxGeometry relative="1" as="geometry" />
        </mxCell>
        <mxCell id="r2_5SxalmyWafiQPoSgy-12" value="tinggi berlian" style="shape=parallelogram;perimeter=parallelogramPerimeter;whiteSpace=wrap;html=1;fixedSize=1;" vertex="1" parent="WIyWlLk6GJQsqaUBKTNV-1">
          <mxGeometry x="125" y="210" width="120" height="60" as="geometry" />
        </mxCell>
        <mxCell id="r2_5SxalmyWafiQPoSgy-17" value="" style="edgeStyle=orthogonalEdgeStyle;rounded=0;orthogonalLoop=1;jettySize=auto;html=1;" edge="1" parent="WIyWlLk6GJQsqaUBKTNV-1" source="r2_5SxalmyWafiQPoSgy-14" target="r2_5SxalmyWafiQPoSgy-16">
          <mxGeometry relative="1" as="geometry" />
        </mxCell>
        <mxCell id="r2_5SxalmyWafiQPoSgy-14" value="baris = 1" style="whiteSpace=wrap;html=1;" vertex="1" parent="WIyWlLk6GJQsqaUBKTNV-1">
          <mxGeometry x="137.5" y="310" width="95" height="40" as="geometry" />
        </mxCell>
        <mxCell id="r2_5SxalmyWafiQPoSgy-19" value="" style="edgeStyle=orthogonalEdgeStyle;rounded=0;orthogonalLoop=1;jettySize=auto;html=1;" edge="1" parent="WIyWlLk6GJQsqaUBKTNV-1" source="r2_5SxalmyWafiQPoSgy-16" target="r2_5SxalmyWafiQPoSgy-18">
          <mxGeometry relative="1" as="geometry" />
        </mxCell>
        <mxCell id="r2_5SxalmyWafiQPoSgy-16" value="" style="ellipse;whiteSpace=wrap;html=1;" vertex="1" parent="WIyWlLk6GJQsqaUBKTNV-1">
          <mxGeometry x="162.5" y="390" width="45" height="40" as="geometry" />
        </mxCell>
        <mxCell id="r2_5SxalmyWafiQPoSgy-24" value="" style="edgeStyle=orthogonalEdgeStyle;rounded=0;orthogonalLoop=1;jettySize=auto;html=1;" edge="1" parent="WIyWlLk6GJQsqaUBKTNV-1" source="r2_5SxalmyWafiQPoSgy-18" target="r2_5SxalmyWafiQPoSgy-20">
          <mxGeometry relative="1" as="geometry" />
        </mxCell>
        <mxCell id="r2_5SxalmyWafiQPoSgy-52" value="true" style="edgeLabel;html=1;align=center;verticalAlign=middle;resizable=0;points=[];" vertex="1" connectable="0" parent="r2_5SxalmyWafiQPoSgy-24">
          <mxGeometry x="0.0061" y="1" relative="1" as="geometry">
            <mxPoint as="offset" />
          </mxGeometry>
        </mxCell>
        <mxCell id="r2_5SxalmyWafiQPoSgy-51" style="edgeStyle=orthogonalEdgeStyle;rounded=0;orthogonalLoop=1;jettySize=auto;html=1;entryX=0;entryY=0.5;entryDx=0;entryDy=0;" edge="1" parent="WIyWlLk6GJQsqaUBKTNV-1" source="r2_5SxalmyWafiQPoSgy-18" target="r2_5SxalmyWafiQPoSgy-50">
          <mxGeometry relative="1" as="geometry">
            <Array as="points">
              <mxPoint x="-10" y="500" />
              <mxPoint x="-10" y="1380" />
            </Array>
          </mxGeometry>
        </mxCell>
        <mxCell id="r2_5SxalmyWafiQPoSgy-53" value="false" style="edgeLabel;html=1;align=center;verticalAlign=middle;resizable=0;points=[];" vertex="1" connectable="0" parent="r2_5SxalmyWafiQPoSgy-51">
          <mxGeometry x="-0.8892" y="2" relative="1" as="geometry">
            <mxPoint as="offset" />
          </mxGeometry>
        </mxCell>
        <mxCell id="r2_5SxalmyWafiQPoSgy-18" value="baris &amp;lt;= tinggi_berlian" style="rhombus;whiteSpace=wrap;html=1;" vertex="1" parent="WIyWlLk6GJQsqaUBKTNV-1">
          <mxGeometry x="98.75" y="470" width="172.5" height="60" as="geometry" />
        </mxCell>
        <mxCell id="r2_5SxalmyWafiQPoSgy-26" value="" style="edgeStyle=orthogonalEdgeStyle;rounded=0;orthogonalLoop=1;jettySize=auto;html=1;" edge="1" parent="WIyWlLk6GJQsqaUBKTNV-1" source="r2_5SxalmyWafiQPoSgy-20" target="r2_5SxalmyWafiQPoSgy-21">
          <mxGeometry relative="1" as="geometry" />
        </mxCell>
        <mxCell id="r2_5SxalmyWafiQPoSgy-20" value="spasi = 1" style="whiteSpace=wrap;html=1;" vertex="1" parent="WIyWlLk6GJQsqaUBKTNV-1">
          <mxGeometry x="137.5" y="570" width="95" height="40" as="geometry" />
        </mxCell>
        <mxCell id="r2_5SxalmyWafiQPoSgy-27" value="" style="edgeStyle=orthogonalEdgeStyle;rounded=0;orthogonalLoop=1;jettySize=auto;html=1;" edge="1" parent="WIyWlLk6GJQsqaUBKTNV-1" source="r2_5SxalmyWafiQPoSgy-21" target="r2_5SxalmyWafiQPoSgy-22">
          <mxGeometry relative="1" as="geometry" />
        </mxCell>
        <mxCell id="r2_5SxalmyWafiQPoSgy-21" value="" style="ellipse;whiteSpace=wrap;html=1;" vertex="1" parent="WIyWlLk6GJQsqaUBKTNV-1">
          <mxGeometry x="162.5" y="650" width="45" height="40" as="geometry" />
        </mxCell>
        <mxCell id="r2_5SxalmyWafiQPoSgy-31" value="" style="edgeStyle=orthogonalEdgeStyle;rounded=0;orthogonalLoop=1;jettySize=auto;html=1;" edge="1" parent="WIyWlLk6GJQsqaUBKTNV-1" source="r2_5SxalmyWafiQPoSgy-22" target="r2_5SxalmyWafiQPoSgy-30">
          <mxGeometry relative="1" as="geometry" />
        </mxCell>
        <mxCell id="r2_5SxalmyWafiQPoSgy-54" value="true" style="edgeLabel;html=1;align=center;verticalAlign=middle;resizable=0;points=[];" vertex="1" connectable="0" parent="r2_5SxalmyWafiQPoSgy-31">
          <mxGeometry x="-0.127" relative="1" as="geometry">
            <mxPoint as="offset" />
          </mxGeometry>
        </mxCell>
        <mxCell id="r2_5SxalmyWafiQPoSgy-45" style="edgeStyle=orthogonalEdgeStyle;rounded=0;orthogonalLoop=1;jettySize=auto;html=1;entryX=0;entryY=0.5;entryDx=0;entryDy=0;" edge="1" parent="WIyWlLk6GJQsqaUBKTNV-1" source="r2_5SxalmyWafiQPoSgy-22" target="r2_5SxalmyWafiQPoSgy-36">
          <mxGeometry relative="1" as="geometry">
            <Array as="points">
              <mxPoint x="74" y="770" />
              <mxPoint x="74" y="930" />
            </Array>
          </mxGeometry>
        </mxCell>
        <mxCell id="r2_5SxalmyWafiQPoSgy-55" value="false" style="edgeLabel;html=1;align=center;verticalAlign=middle;resizable=0;points=[];" vertex="1" connectable="0" parent="r2_5SxalmyWafiQPoSgy-45">
          <mxGeometry x="-0.3178" relative="1" as="geometry">
            <mxPoint y="1" as="offset" />
          </mxGeometry>
        </mxCell>
        <mxCell id="r2_5SxalmyWafiQPoSgy-22" value="spasi &amp;lt;= tinggi_berlian - baris" style="rhombus;whiteSpace=wrap;html=1;" vertex="1" parent="WIyWlLk6GJQsqaUBKTNV-1">
          <mxGeometry x="94.38" y="730" width="181.25" height="80" as="geometry" />
        </mxCell>
        <mxCell id="r2_5SxalmyWafiQPoSgy-33" value="" style="edgeStyle=orthogonalEdgeStyle;rounded=0;orthogonalLoop=1;jettySize=auto;html=1;" edge="1" parent="WIyWlLk6GJQsqaUBKTNV-1" source="r2_5SxalmyWafiQPoSgy-30" target="r2_5SxalmyWafiQPoSgy-32">
          <mxGeometry relative="1" as="geometry" />
        </mxCell>
        <mxCell id="r2_5SxalmyWafiQPoSgy-30" value="&quot; &quot;" style="shape=parallelogram;perimeter=parallelogramPerimeter;whiteSpace=wrap;html=1;fixedSize=1;" vertex="1" parent="WIyWlLk6GJQsqaUBKTNV-1">
          <mxGeometry x="132.51" y="850" width="105" height="40" as="geometry" />
        </mxCell>
        <mxCell id="r2_5SxalmyWafiQPoSgy-34" style="edgeStyle=orthogonalEdgeStyle;rounded=0;orthogonalLoop=1;jettySize=auto;html=1;entryX=1;entryY=0.5;entryDx=0;entryDy=0;" edge="1" parent="WIyWlLk6GJQsqaUBKTNV-1" source="r2_5SxalmyWafiQPoSgy-32" target="r2_5SxalmyWafiQPoSgy-22">
          <mxGeometry relative="1" as="geometry">
            <Array as="points">
              <mxPoint x="350" y="770" />
            </Array>
          </mxGeometry>
        </mxCell>
        <mxCell id="r2_5SxalmyWafiQPoSgy-32" value="spasi ++" style="whiteSpace=wrap;html=1;" vertex="1" parent="WIyWlLk6GJQsqaUBKTNV-1">
          <mxGeometry x="300" y="845" width="89.99" height="50" as="geometry" />
        </mxCell>
        <mxCell id="r2_5SxalmyWafiQPoSgy-35" value="" style="edgeStyle=orthogonalEdgeStyle;rounded=0;orthogonalLoop=1;jettySize=auto;html=1;" edge="1" parent="WIyWlLk6GJQsqaUBKTNV-1" source="r2_5SxalmyWafiQPoSgy-36" target="r2_5SxalmyWafiQPoSgy-38">
          <mxGeometry relative="1" as="geometry" />
        </mxCell>
        <mxCell id="r2_5SxalmyWafiQPoSgy-36" value="bintang = 1" style="whiteSpace=wrap;html=1;" vertex="1" parent="WIyWlLk6GJQsqaUBKTNV-1">
          <mxGeometry x="137.5" y="910" width="95" height="40" as="geometry" />
        </mxCell>
        <mxCell id="r2_5SxalmyWafiQPoSgy-37" value="" style="edgeStyle=orthogonalEdgeStyle;rounded=0;orthogonalLoop=1;jettySize=auto;html=1;" edge="1" parent="WIyWlLk6GJQsqaUBKTNV-1" source="r2_5SxalmyWafiQPoSgy-38" target="r2_5SxalmyWafiQPoSgy-40">
          <mxGeometry relative="1" as="geometry" />
        </mxCell>
        <mxCell id="r2_5SxalmyWafiQPoSgy-38" value="" style="ellipse;whiteSpace=wrap;html=1;" vertex="1" parent="WIyWlLk6GJQsqaUBKTNV-1">
          <mxGeometry x="162.5" y="990" width="45" height="40" as="geometry" />
        </mxCell>
        <mxCell id="r2_5SxalmyWafiQPoSgy-39" value="" style="edgeStyle=orthogonalEdgeStyle;rounded=0;orthogonalLoop=1;jettySize=auto;html=1;" edge="1" parent="WIyWlLk6GJQsqaUBKTNV-1" source="r2_5SxalmyWafiQPoSgy-40" target="r2_5SxalmyWafiQPoSgy-42">
          <mxGeometry relative="1" as="geometry" />
        </mxCell>
        <mxCell id="r2_5SxalmyWafiQPoSgy-56" value="true" style="edgeLabel;html=1;align=center;verticalAlign=middle;resizable=0;points=[];" vertex="1" connectable="0" parent="r2_5SxalmyWafiQPoSgy-39">
          <mxGeometry x="-0.0604" relative="1" as="geometry">
            <mxPoint as="offset" />
          </mxGeometry>
        </mxCell>
        <mxCell id="r2_5SxalmyWafiQPoSgy-47" style="edgeStyle=orthogonalEdgeStyle;rounded=0;orthogonalLoop=1;jettySize=auto;html=1;entryX=0;entryY=0.5;entryDx=0;entryDy=0;" edge="1" parent="WIyWlLk6GJQsqaUBKTNV-1" source="r2_5SxalmyWafiQPoSgy-40" target="r2_5SxalmyWafiQPoSgy-46">
          <mxGeometry relative="1" as="geometry">
            <Array as="points">
              <mxPoint x="40" y="1110" />
              <mxPoint x="40" y="1290" />
            </Array>
          </mxGeometry>
        </mxCell>
        <mxCell id="r2_5SxalmyWafiQPoSgy-57" value="false" style="edgeLabel;html=1;align=center;verticalAlign=middle;resizable=0;points=[];" vertex="1" connectable="0" parent="r2_5SxalmyWafiQPoSgy-47">
          <mxGeometry x="-0.3104" y="-1" relative="1" as="geometry">
            <mxPoint as="offset" />
          </mxGeometry>
        </mxCell>
        <mxCell id="r2_5SxalmyWafiQPoSgy-40" value="bintang &amp;lt;= &amp;lt;= 2 * baris - 1" style="rhombus;whiteSpace=wrap;html=1;" vertex="1" parent="WIyWlLk6GJQsqaUBKTNV-1">
          <mxGeometry x="94.38" y="1070" width="181.25" height="80" as="geometry" />
        </mxCell>
        <mxCell id="r2_5SxalmyWafiQPoSgy-41" value="" style="edgeStyle=orthogonalEdgeStyle;rounded=0;orthogonalLoop=1;jettySize=auto;html=1;" edge="1" parent="WIyWlLk6GJQsqaUBKTNV-1" source="r2_5SxalmyWafiQPoSgy-42" target="r2_5SxalmyWafiQPoSgy-44">
          <mxGeometry relative="1" as="geometry" />
        </mxCell>
        <mxCell id="r2_5SxalmyWafiQPoSgy-42" value="&quot;*&quot;" style="shape=parallelogram;perimeter=parallelogramPerimeter;whiteSpace=wrap;html=1;fixedSize=1;" vertex="1" parent="WIyWlLk6GJQsqaUBKTNV-1">
          <mxGeometry x="132.51" y="1190" width="105" height="40" as="geometry" />
        </mxCell>
        <mxCell id="r2_5SxalmyWafiQPoSgy-43" style="edgeStyle=orthogonalEdgeStyle;rounded=0;orthogonalLoop=1;jettySize=auto;html=1;entryX=1;entryY=0.5;entryDx=0;entryDy=0;" edge="1" parent="WIyWlLk6GJQsqaUBKTNV-1" source="r2_5SxalmyWafiQPoSgy-44" target="r2_5SxalmyWafiQPoSgy-40">
          <mxGeometry relative="1" as="geometry">
            <Array as="points">
              <mxPoint x="350" y="1110" />
            </Array>
          </mxGeometry>
        </mxCell>
        <mxCell id="r2_5SxalmyWafiQPoSgy-44" value="bintang ++" style="whiteSpace=wrap;html=1;" vertex="1" parent="WIyWlLk6GJQsqaUBKTNV-1">
          <mxGeometry x="300" y="1185" width="89.99" height="50" as="geometry" />
        </mxCell>
        <mxCell id="r2_5SxalmyWafiQPoSgy-49" style="edgeStyle=orthogonalEdgeStyle;rounded=0;orthogonalLoop=1;jettySize=auto;html=1;entryX=1;entryY=0.5;entryDx=0;entryDy=0;" edge="1" parent="WIyWlLk6GJQsqaUBKTNV-1" source="r2_5SxalmyWafiQPoSgy-46" target="r2_5SxalmyWafiQPoSgy-16">
          <mxGeometry relative="1" as="geometry">
            <mxPoint x="340" y="550" as="targetPoint" />
            <Array as="points">
              <mxPoint x="480" y="1290" />
              <mxPoint x="480" y="410" />
            </Array>
          </mxGeometry>
        </mxCell>
        <mxCell id="r2_5SxalmyWafiQPoSgy-46" value="baris ++" style="rounded=0;whiteSpace=wrap;html=1;" vertex="1" parent="WIyWlLk6GJQsqaUBKTNV-1">
          <mxGeometry x="145.5" y="1270" width="79" height="40" as="geometry" />
        </mxCell>
        <mxCell id="r2_5SxalmyWafiQPoSgy-50" value="End" style="ellipse;whiteSpace=wrap;html=1;" vertex="1" parent="WIyWlLk6GJQsqaUBKTNV-1">
          <mxGeometry x="125" y="1340" width="120" height="80" as="geometry" />
        </mxCell>
      </root>
    </mxGraphModel>
  </diagram>
</mxfile>
